<svg width="48" height="48" viewBox="0 0 48 48" fill="none" xmlns="http://www.w3.org/2000/svg">
<circle cx="24" cy="24" r="24" fill="#32CE76"/>
<path d="M26.8222 33.5705V36.7206H20.9707V21.1841H23.5433V17.9048H17.7054V27.0195H11.275V21.1841H14.4304V17.9048H11.0396C10.2337 17.9058 9.4612 18.2262 8.89139 18.7958C8.32159 19.3653 8.00102 20.1375 8 20.943V27.2683C8.00102 28.0738 8.32159 28.846 8.89139 29.4156C9.4612 29.9851 10.2337 30.3055 11.0396 30.3066H17.7054V36.9675C17.7079 37.7717 18.0289 38.5421 18.5981 39.1104C19.1674 39.6786 19.9385 39.9985 20.743 40H27.0557C27.8615 39.999 28.634 39.6785 29.2038 39.109C29.7736 38.5394 30.0942 37.7672 30.0952 36.9618V33.5705H26.8222Z" fill="white"/>
<path d="M36.9602 17.6968H30.2957V11.0393C30.2947 10.2335 29.9741 9.46108 29.4042 8.89132C28.8344 8.32156 28.0618 8.00102 27.2559 8H20.9427C20.1371 8.00153 19.365 8.3223 18.7956 8.892C18.2261 9.4617 17.9058 10.2339 17.9048 11.0393V14.4279H21.1704V11.267H27.0166V26.8147H24.4515V30.0952H30.2957V20.9696H36.7267V26.8147H33.5691V30.0952H36.9602C37.7661 30.0942 38.5387 29.7737 39.1086 29.2039C39.6784 28.6342 39.999 27.8617 40 27.0559V20.7361C39.999 19.9304 39.6784 19.1579 39.1086 18.5881C38.5387 18.0184 37.7661 17.6978 36.9602 17.6968Z" fill="white"/>
</svg>
