<?xml version="1.0" encoding="UTF-8"?>
<!-- This file is generated by npm run build:icons -->
<svg xmlns="http://www.w3.org/2000/svg" xmlns:xlink="http://www.w3.org/1999/xlink" width="0" height="0">
  <defs>
    <symbol viewBox="0 0 24 24" fill="none" id="edit">
      <path d="M13.26 3.6L5.04997 12.29C4.73997 12.62 4.43997 13.27 4.37997 13.72L4.00997 16.96C3.87997 18.13 4.71997 18.93 5.87997 18.73L9.09997 18.18C9.54997 18.1 10.18 17.77 10.49 17.43L18.7 8.74C20.12 7.24 20.76 5.53 18.55 3.44C16.35 1.37 14.68 2.1 13.26 3.6Z" stroke="currentColor" stroke-width="1.5" stroke-linecap="round" stroke-linejoin="round"></path>
      <path d="M11.89 5.04999C12.32 7.80999 14.56 9.91999 17.34 10.2" stroke="currentColor" stroke-width="1.5" stroke-linecap="round" stroke-linejoin="round"></path>
      <path d="M3 22H21" stroke="currentColor" stroke-width="1.5" stroke-linecap="round" stroke-linejoin="round"></path>
    </symbol>
    
    <symbol viewBox="0 0 24 24" fill="none" id="eye">
      <path d="M15.58 12C15.58 13.98 13.98 15.58 12 15.58C10.02 15.58 8.42004 13.98 8.42004 12C8.42004 10.02 10.02 8.42001 12 8.42001C13.98 8.42001 15.58 10.02 15.58 12Z" stroke="currentColor" stroke-width="1.5" stroke-linecap="round" stroke-linejoin="round"></path>
      <path d="M12 20.27C15.53 20.27 18.82 18.19 21.11 14.59C22.01 13.18 22.01 10.81 21.11 9.4C18.82 5.8 15.53 3.72 12 3.72C8.46997 3.72 5.17997 5.8 2.88997 9.4C1.98997 10.81 1.98997 13.18 2.88997 14.59C5.17997 18.19 8.46997 20.27 12 20.27Z" stroke="currentColor" stroke-width="1.5" stroke-linecap="round" stroke-linejoin="round"></path>
    </symbol>
    
    <symbol viewBox="0 0 24 24" fill="none" id="link">
      <path d="M14.53 9.47001L9.47004 14.53C8.82004 13.88 8.42004 12.99 8.42004 12C8.42004 10.02 10.02 8.42001 12 8.42001C12.99 8.42001 13.88 8.82001 14.53 9.47001Z" stroke="currentColor" stroke-width="1.5" stroke-linecap="round" stroke-linejoin="round"></path>
      <path d="M17.82 5.77001C16.07 4.45001 14.07 3.73001 12 3.73001C8.46997 3.73001 5.17997 5.81001 2.88997 9.41001C1.98997 10.82 1.98997 13.19 2.88997 14.6C3.67997 15.84 4.59997 16.91 5.59997 17.77" stroke="currentColor" stroke-width="1.5" stroke-linecap="round" stroke-linejoin="round"></path>
      <path d="M8.42004 19.53C9.56004 20.01 10.77 20.27 12 20.27C15.53 20.27 18.82 18.19 21.11 14.59C22.01 13.18 22.01 10.81 21.11 9.39999C20.78 8.87999 20.42 8.38999 20.05 7.92999" stroke="currentColor" stroke-width="1.5" stroke-linecap="round" stroke-linejoin="round"></path>
      <path d="M15.5099 12.7C15.2499 14.11 14.0999 15.26 12.6899 15.52" stroke="currentColor" stroke-width="1.5" stroke-linecap="round" stroke-linejoin="round"></path>
      <path d="M9.47 14.53L2 22" stroke="currentColor" stroke-width="1.5" stroke-linecap="round" stroke-linejoin="round"></path>
      <path d="M22 2L14.53 9.47" stroke="currentColor" stroke-width="1.5" stroke-linecap="round" stroke-linejoin="round"></path>
    </symbol>
    
    <symbol viewBox="0 0 24 24" fill="none" id="location">
      <path d="M3.61995 8.49C5.58995 -0.169998 18.42 -0.159997 20.38 8.5C21.53 13.58 18.37 17.88 15.6 20.54C13.59 22.48 10.41 22.48 8.38995 20.54C5.62995 17.88 2.46995 13.57 3.61995 8.49Z" stroke="currentColor" stroke-width="1.5"></path>
      <path d="M9.25 11.5L10.75 13L14.75 9" stroke="currentColor" stroke-width="1.5" stroke-linecap="round" stroke-linejoin="round"></path>
    </symbol>

  
  </defs>
</svg>
